<?xml version="1.0" standalone="no"?>
<!DOCTYPE svg PUBLIC "-//W3C//DTD SVG 20010904//EN"
 "http://www.w3.org/TR/2001/REC-SVG-20010904/DTD/svg10.dtd">
<svg version="1.0" xmlns="http://www.w3.org/2000/svg"
 width="300.000000pt" height="295.000000pt" viewBox="0 0 300.000000 295.000000"
 preserveAspectRatio="xMidYMid meet">

<g transform="translate(0.000000,295.000000) scale(0.100000,-0.100000)"
fill="#000000" stroke="none">
<path d="M1069 2715 c-56 -29 -109 -87 -109 -120 0 -23 -34 -65 -53 -65 -5 0
-3 -8 4 -17 10 -12 10 -15 1 -9 -42 25 -81 -40 -86 -142 -2 -34 -6 -65 -9 -68
-4 -4 -2 -15 4 -26 7 -14 7 -23 -1 -34 -9 -10 -12 -67 -11 -190 1 -97 4 -180
6 -184 3 -5 -1 -15 -9 -23 -8 -8 -12 -18 -8 -21 3 -4 -2 -4 -12 0 -15 6 -17 2
-16 -27 3 -57 1 -69 -15 -69 -17 0 -20 -35 -6 -89 5 -20 15 -62 22 -94 8 -36
19 -62 30 -68 21 -11 76 -12 82 -1 2 4 -2 45 -9 92 -22 146 -13 405 16 434 6
6 10 18 10 28 0 19 25 25 35 9 3 -5 -4 -33 -16 -63 -12 -31 -22 -83 -25 -126
-2 -40 -6 -77 -9 -83 -10 -16 -6 -185 5 -214 6 -15 8 -30 6 -34 -7 -11 32
-151 55 -196 11 -22 32 -52 47 -68 14 -15 22 -27 18 -27 -4 0 0 -7 9 -16 9 -9
13 -19 10 -22 -3 -4 -10 0 -15 8 -8 13 -10 13 -10 0 0 -29 31 -255 39 -287 7
-25 6 -31 -5 -26 -9 3 -21 -9 -33 -38 -11 -24 -34 -58 -51 -74 -17 -16 -52
-61 -78 -99 -32 -46 -64 -80 -100 -102 -29 -19 -56 -34 -61 -34 -4 0 -25 -20
-45 -43 -35 -42 -39 -44 -82 -39 -44 4 -54 -4 -33 -25 8 -8 8 -13 0 -18 -6 -3
-11 -3 -10 2 4 20 -2 27 -12 13 -9 -12 -10 -11 -6 8 6 24 0 27 -23 12 -42 -26
219 -222 405 -303 201 -88 361 -120 595 -121 187 0 299 19 463 78 221 80 382
183 544 348 90 90 120 128 104 128 -6 0 -11 -4 -11 -10 0 -5 -4 -10 -10 -10
-14 0 -50 -37 -42 -44 3 -3 -4 -6 -15 -6 -19 0 -48 24 -48 39 0 3 -3 5 -7 4
-4 -2 -18 1 -32 7 -15 5 -37 5 -59 -1 -24 -6 -44 -6 -63 2 -16 7 -35 11 -41
10 -7 -1 -13 3 -13 9 0 6 -15 17 -32 24 -18 7 -42 17 -53 21 -11 5 -33 9 -50
10 -49 4 -60 9 -101 47 l-38 37 28 24 29 25 -21 29 c-33 46 -98 104 -112 101
-7 -2 -17 12 -22 32 -6 19 -27 51 -47 70 -21 19 -41 42 -44 50 -4 12 -10 9
-27 -12 -28 -36 -35 -35 -36 5 -3 67 -14 101 -46 134 -19 20 -29 37 -23 41 25
17 102 174 120 242 21 81 -1 145 -33 98 -14 -19 -16 -19 -24 -4 -14 24 1 203
17 216 8 6 11 22 9 35 -3 18 -1 23 10 19 17 -7 46 32 46 63 0 13 -13 48 -29
79 -27 54 -31 84 -10 84 15 0 10 24 -11 50 -22 28 -28 76 -8 64 8 -5 9 -2 5 9
-4 11 -1 17 8 17 15 0 45 -53 71 -125 17 -44 32 -192 35 -334 1 -84 3 -92 20
-88 12 3 19 -3 24 -21 3 -14 2 -28 -4 -31 -6 -4 -12 -18 -13 -31 -2 -14 -6
-27 -9 -30 -3 -3 -9 -19 -12 -36 -5 -27 -3 -33 15 -37 38 -10 108 50 108 92 0
19 -38 -6 -45 -29 -4 -11 -11 -18 -16 -15 -15 10 -10 35 9 42 28 10 52 35 52
54 0 11 5 16 14 13 16 -6 49 67 40 91 -7 18 -20 20 -28 3 -5 -10 -7 -10 -12 0
-5 10 -9 10 -20 1 -11 -9 -14 -8 -14 5 0 9 3 16 8 16 11 0 7 53 -8 79 -10 20
-10 38 0 92 6 38 9 73 6 78 -3 5 -2 41 4 81 9 63 8 75 -10 111 -19 36 -38 63
-66 93 -6 6 -9 17 -6 24 2 7 -7 39 -21 70 -14 31 -31 84 -37 117 -15 76 -48
144 -80 164 -17 11 -22 12 -16 3 6 -10 -1 -9 -24 3 -17 9 -39 15 -47 13 -15
-3 -15 -5 1 -20 21 -22 5 -23 -34 -3 -29 15 -43 4 -17 -12 6 -4 19 -21 28 -36
14 -26 39 -36 31 -13 -2 5 4 4 12 -4 20 -16 20 -30 1 -30 -21 0 -19 -10 7 -37
19 -21 20 -23 4 -23 -11 0 -16 -5 -13 -13 3 -8 -1 -14 -9 -14 -8 0 -14 6 -14
14 0 7 -7 16 -16 20 -14 5 -13 8 5 18 21 11 21 12 -19 55 -22 25 -40 51 -40
59 0 10 -11 12 -45 9 -25 -3 -45 -2 -45 3 0 5 5 9 12 9 6 0 4 8 -6 19 -17 18
-80 36 -70 19 3 -4 -3 -8 -13 -8 -15 -1 -14 -4 7 -23 14 -12 32 -30 40 -41 14
-18 13 -18 -20 -11 -31 7 -33 6 -21 -9 12 -14 11 -16 -7 -16 -12 0 -47 11 -77
25 -31 13 -59 24 -63 24 -20 -3 -33 4 -62 33 -25 25 -34 28 -40 17 -7 -11 -15
-11 -39 -2 -27 10 -37 8 -83 -17 -60 -31 -108 -45 -108 -31 0 6 10 16 22 22
12 6 30 20 41 30 11 10 42 23 69 29 46 9 51 9 69 -12 10 -13 18 -18 19 -11 0
6 9 15 21 18 20 7 20 7 2 20 -10 6 -35 15 -56 19 -21 4 -44 9 -50 11 -7 2 -33
-7 -58 -20z m209 -114 c3 -8 -1 -12 -9 -9 -7 2 -15 10 -17 17 -3 8 1 12 9 9 7
-2 15 -10 17 -17z m319 -17 c-3 -3 -12 -4 -19 -1 -8 3 -5 6 6 6 11 1 17 -2 13
-5z m-74 -21 c-7 -2 -19 -2 -25 0 -7 3 -2 5 12 5 14 0 19 -2 13 -5z m92 -3 c4
-6 -7 -10 -27 -9 -27 0 -30 2 -13 9 27 12 33 12 40 0z m343 -788 c10 -7 10
-15 -1 -40 -16 -38 -27 -32 -27 15 0 34 5 39 28 25z m29 -29 c-3 -10 -5 -4 -5
12 0 17 2 24 5 18 2 -7 2 -21 0 -30z m-660 -238 c0 -8 -9 -15 -19 -15 -17 0
-25 20 -12 33 10 9 31 -3 31 -18z m69 -14 c-10 -15 -46 -14 -46 2 0 7 5 18 12
25 10 10 15 9 26 -2 8 -8 11 -19 8 -25z m40 -8 c-10 -10 -19 5 -10 18 6 11 8
11 12 0 2 -7 1 -15 -2 -18z m501 -19 c-3 -3 -12 -4 -19 -1 -8 3 -5 6 6 6 11 1
17 -2 13 -5z m123 -824 c0 -5 -5 -10 -11 -10 -5 0 -7 5 -4 10 3 6 8 10 11 10
2 0 4 -4 4 -10z m424 -127 c10 -24 -17 -41 -56 -37 -36 5 -42 9 -33 23 8 13
35 15 35 2 0 -5 7 -11 15 -15 12 -4 13 -2 5 13 -7 14 -6 21 3 24 21 9 25 8 31
-10z m8 -65 c-6 -6 -27 -17 -46 -23 -28 -10 -36 -10 -40 1 -6 16 19 38 36 32
7 -3 22 -2 33 2 25 9 33 4 17 -12z m-198 -51 c16 -16 14 -50 -3 -71 -17 -20
-41 -21 -41 -2 0 8 -6 17 -12 19 -8 3 -5 6 5 6 10 1 16 5 12 11 -5 8 14 50 23
50 2 0 9 -6 16 -13z"/>
<path d="M1417 2669 c7 -7 15 -10 18 -7 3 3 -2 9 -12 12 -14 6 -15 5 -6 -5z"/>
<path d="M2122 2354 c2 -67 -6 -85 -55 -114 -23 -15 -25 -19 -11 -24 11 -4 27
5 50 30 30 31 34 42 34 87 0 29 -5 59 -10 67 -7 11 -9 -3 -8 -46z"/>
<path d="M274 2198 c-3 -4 1 -10 8 -12 17 -5 190 -26 213 -26 35 0 5 13 -48
21 -28 5 -78 12 -110 17 -32 5 -60 5 -63 0z"/>
<path d="M1910 1610 c0 -5 5 -10 11 -10 5 0 7 5 4 10 -3 6 -8 10 -11 10 -2 0
-4 -4 -4 -10z"/>
<path d="M2260 689 c-78 -37 -79 -37 -57 -54 15 -11 26 -9 76 16 48 24 58 33
54 49 -3 11 -6 20 -7 19 0 0 -30 -14 -66 -30z"/>
<path d="M2310 596 c19 -8 42 -15 50 -15 26 -1 -10 16 -50 23 l-35 6 35 -14z"/>
</g>
</svg>
